<svg width="50" height="50" viewBox="0 0 50 50" fill="none" xmlns="http://www.w3.org/2000/svg">
<g clip-path="url(#clip0_16_2)">
<path d="M25 8.33333C23.8542 8.33333 22.8733 7.92535 22.0573 7.10937C21.2413 6.2934 20.8333 5.3125 20.8333 4.16667C20.8333 3.02083 21.2413 2.03993 22.0573 1.22396C22.8733 0.407986 23.8542 0 25 0C26.1458 0 27.1267 0.407986 27.9427 1.22396C28.7587 2.03993 29.1667 3.02083 29.1667 4.16667C29.1667 5.3125 28.7587 6.2934 27.9427 7.10937C27.1267 7.92535 26.1458 8.33333 25 8.33333ZM18.75 39.5833V14.5833C16.6667 14.4097 14.5486 14.1493 12.3958 13.8021C10.2431 13.4549 8.19444 13.0208 6.25 12.5L7.29167 8.33333C10 9.0625 12.8819 9.59201 15.9375 9.92187C18.9931 10.2517 22.0139 10.4167 25 10.4167C27.9861 10.4167 31.0069 10.2517 34.0625 9.92187C37.1181 9.59201 40 9.0625 42.7083 8.33333L43.75 12.5C41.8056 13.0208 39.7569 13.4549 37.6042 13.8021C35.4514 14.1493 33.3333 14.4097 31.25 14.5833V39.5833H27.0833V27.0833H22.9167V39.5833H18.75ZM16.6667 50C16.0764 50 15.5816 49.8003 15.1823 49.401C14.783 49.0017 14.5833 48.5069 14.5833 47.9167C14.5833 47.3264 14.783 46.8316 15.1823 46.4323C15.5816 46.033 16.0764 45.8333 16.6667 45.8333C17.2569 45.8333 17.7517 46.033 18.151 46.4323C18.5503 46.8316 18.75 47.3264 18.75 47.9167C18.75 48.5069 18.5503 49.0017 18.151 49.401C17.7517 49.8003 17.2569 50 16.6667 50ZM25 50C24.4097 50 23.9149 49.8003 23.5156 49.401C23.1163 49.0017 22.9167 48.5069 22.9167 47.9167C22.9167 47.3264 23.1163 46.8316 23.5156 46.4323C23.9149 46.033 24.4097 45.8333 25 45.8333C25.5903 45.8333 26.0851 46.033 26.4844 46.4323C26.8837 46.8316 27.0833 47.3264 27.0833 47.9167C27.0833 48.5069 26.8837 49.0017 26.4844 49.401C26.0851 49.8003 25.5903 50 25 50ZM33.3333 50C32.7431 50 32.2483 49.8003 31.849 49.401C31.4497 49.0017 31.25 48.5069 31.25 47.9167C31.25 47.3264 31.4497 46.8316 31.849 46.4323C32.2483 46.033 32.7431 45.8333 33.3333 45.8333C33.9236 45.8333 34.4184 46.033 34.8177 46.4323C35.217 46.8316 35.4167 47.3264 35.4167 47.9167C35.4167 48.5069 35.217 49.0017 34.8177 49.401C34.4184 49.8003 33.9236 50 33.3333 50Z" fill="#4A3856"/>
</g>
<defs>
<clipPath id="clip0_16_2">
<rect width="50" height="50" fill="white"/>
</clipPath>
</defs>
</svg>
