<svg width="50" height="50" viewBox="0 0 50 50" fill="none" xmlns="http://www.w3.org/2000/svg">
<path d="M25 45.8334C23.8542 45.8334 22.8733 45.4254 22.0573 44.6094C21.2413 43.7934 20.8333 42.8125 20.8333 41.6667H29.1667C29.1667 42.8125 28.7587 43.7934 27.9427 44.6094C27.1267 45.4254 26.1458 45.8334 25 45.8334ZM16.6667 39.5834V35.4167H33.3333V39.5834H16.6667ZM17.1875 33.3334C14.7917 31.9097 12.8906 30 11.4844 27.6042C10.0781 25.2084 9.375 22.6042 9.375 19.7917C9.375 15.4514 10.8941 11.7622 13.9323 8.72398C16.9705 5.68578 20.6597 4.16669 25 4.16669C29.3403 4.16669 33.0295 5.68578 36.0677 8.72398C39.1059 11.7622 40.625 15.4514 40.625 19.7917C40.625 22.6042 39.9219 25.2084 38.5156 27.6042C37.1094 30 35.2083 31.9097 32.8125 33.3334H17.1875ZM18.4375 29.1667H31.5625C33.125 28.0556 34.3316 26.684 35.1823 25.0521C36.033 23.4202 36.4583 21.6667 36.4583 19.7917C36.4583 16.5972 35.3472 13.8889 33.125 11.6667C30.9028 9.44446 28.1944 8.33335 25 8.33335C21.8056 8.33335 19.0972 9.44446 16.875 11.6667C14.6528 13.8889 13.5417 16.5972 13.5417 19.7917C13.5417 21.6667 13.967 23.4202 14.8177 25.0521C15.6684 26.684 16.875 28.0556 18.4375 29.1667Z" fill="#4A3856"/>
</svg>
