<svg width="50" height="50" viewBox="0 0 50 50" fill="none" xmlns="http://www.w3.org/2000/svg">
<g clip-path="url(#clip0_2_49)">
<path d="M24.5019 1.87495C24.3066 1.92378 24.0136 2.10933 23.8476 2.27534C23.5449 2.59761 1.6113 40.2148 1.67966 40.2929C1.70896 40.3125 8.95505 40.3222 17.8027 40.3125L33.8672 40.2832L32.6855 38.3105L31.4941 36.3281H20.8301C13.3594 36.3281 10.1562 36.2988 10.1562 36.2207C10.1562 36.1523 27.0019 5.68355 29.1699 1.82612C29.2285 1.7187 24.9121 1.75777 24.5019 1.87495Z" fill="#4A3856"/>
<path d="M30.3906 5.43945C29.4824 7.01172 14.7559 33.2715 14.6973 33.4277C14.6289 33.584 14.7949 33.5938 17.3633 33.5938H20.0879L25.5371 24.1211C28.5352 18.9062 31.0156 14.6484 31.0547 14.6484C31.0938 14.6484 35.3613 22.1875 40.5371 31.3965L49.9512 48.1348L49.9805 44.4531C49.9903 42.1484 49.961 40.5957 49.9024 40.293C49.834 39.9609 46.8457 34.3457 40.3613 22.373C35.1758 12.7734 30.8887 4.89258 30.8496 4.85352C30.8106 4.80469 30.6055 5.06836 30.3906 5.43945Z" fill="#4A3856"/>
<path d="M29.6191 22.6953L28.2422 25.0781L31.3672 30.4883C33.0859 33.457 35.459 37.4902 36.6504 39.4433C37.8418 41.4062 38.8379 43.0371 38.8477 43.0859C38.8672 43.125 30.1367 43.164 19.4434 43.164H0V45.0195C0 46.3672 0.0390625 46.9726 0.136719 47.1972C0.302734 47.6074 0.78125 48.0078 1.25 48.1445C1.50391 48.2226 8.37891 48.2422 24.1406 48.2226L46.6797 48.1933L38.9062 34.3261C34.6289 26.6992 31.1035 20.4199 31.0645 20.3808C31.0254 20.3418 30.3711 21.3769 29.6191 22.6953Z" fill="#4A3856"/>
</g>
<defs>
<clipPath id="clip0_2_49">
<rect width="50" height="50" fill="white"/>
</clipPath>
</defs>
</svg>
